<svg xmlns="http://www.w3.org/2000/svg" class="icon--R8Ygf" width="16" height="16" fill="none" viewBox="0 0 256 256" style="min-width: 16px; min-height: 16px;">
  <g>
    <path fill="#8a939d" d="M128 42c-47.496 0-86 38.504-86 86s38.504 86 86 86 86-38.504 86-86-38.504-86-86-86ZM22 128C22 69.458 69.458 22 128 22s106 47.458 106 106-47.458 106-106 106S22 186.542 22 128Zm71-25.25C93 83.464 108.765 68 128 68s35 15.464 35 34.75c0 11.198-5.343 21.135-13.55 27.461-3.548 2.735-6.586 5.293-8.738 7.928-2.11 2.583-2.712 4.444-2.712 5.861 0 5.523-4.477 10-10 10s-10-4.477-10-10c0-7.696 3.462-13.908 7.221-18.511 3.716-4.551 8.35-8.291 12.019-11.119 3.544-2.731 5.76-6.932 5.76-11.62 0-8.052-6.621-14.75-15-14.75s-15 6.698-15 14.75c0 5.523-4.477 10-10 10s-10-4.477-10-10ZM138 174c0 5.523-4.477 10-10 10s-10-4.477-10-10 4.477-10 10-10 10 4.477 10 10Z" clip-rule="evenodd" fill-rule="evenodd" data-follow-fill="#000"></path>
  </g>
</svg>
